<?xml version="1.0" encoding="UTF-8"?>
<svg width="17px" height="19px" viewBox="0 0 17 19" version="1.1" xmlns="http://www.w3.org/2000/svg" xmlns:xlink="http://www.w3.org/1999/xlink">
    <!-- Generator: Sketch 41.1 (35376) - http://www.bohemiancoding.com/sketch -->
    <title>loginIcon</title>
    <desc>Created with Sketch.</desc>
    <defs></defs>
    <g id="Page-1" stroke="none" stroke-width="1" fill="none" fill-rule="evenodd">
        <g id="loginIcon" fill="#003082">
            <g id="Page-1">
                <g id="loginIcon">
                    <g id="Group">
                        <path d="M8.5,10 C6.3,10 4.5,8 4.5,5.5 L4.5,4.5 C4.5,2 6.3,0 8.5,0 C10.7,0 12.5,2 12.5,4.5 L12.5,5.5 C12.5,8 10.7,10 8.5,10 Z M8.5,1 C6.8,1 5.5,2.6 5.5,4.5 L5.5,5.5 C5.5,7.4 6.8,9 8.5,9 C10.2,9 11.5,7.4 11.5,5.5 L11.5,4.5 C11.5,2.6 10.2,1 8.5,1 Z" id="Shape"></path>
                        <path d="M9,19 L0,19 L0,16 C0,13.6 2,10.8 4.5,10.8 C4.8,10.8 5,11 5,11.3 C5,11.6 4.8,11.8 4.5,11.8 C2.6,11.8 1,14.1 1,16 L1,18 L9,18 C9.3,18 9.5,18.2 9.5,18.5 C9.5,18.8 9.3,19 9,19 Z" id="Shape"></path>
                        <path d="M17,19 L8,19 C7.7,19 7.5,18.8 7.5,18.5 C7.5,18.2 7.7,18 8,18 L16,18 L16,16 C16,14.1 14.4,11.8 12.5,11.8 C12.2,11.8 12,11.6 12,11.3 C12,11 12.2,10.8 12.5,10.8 C15,10.8 17,13.6 17,16 L17,19 Z" id="Shape"></path>
                    </g>
                </g>
            </g>
        </g>
    </g>
</svg>